<svg width="254" height="519" viewBox="0 0 254 519" fill="none" xmlns="http://www.w3.org/2000/svg">
<path d="M203.312 0.0130005C201.576 -0.0998672 199.781 0.52073 197.94 1.93488C189.049 8.76608 175.954 21.322 165.034 33.0257C159.573 38.8794 154.645 44.5306 151.054 49.1556C149.259 51.467 147.79 53.5305 146.755 55.2405C146.237 56.0955 145.824 56.8706 145.53 57.5491C145.336 57.9983 145.19 58.4204 145.104 58.805C139.043 57.8887 122.165 57.0388 98.4326 60.3538C88.912 46.6398 74.2521 27.6192 60.9883 14.8235C54.3282 8.39868 47.9624 3.48487 42.7422 1.64386C40.1254 0.721122 37.7251 0.545446 35.707 1.41827C33.8042 2.2414 32.3396 3.95332 31.3574 6.60187L31.167 7.14386L31.1602 7.16632L31.1553 7.18878C27.3417 23.6665 19.8037 64.3205 20.1211 95.303L12.2217 106.192L12.127 106.323V139.358L12.1289 139.384L13.8525 155.313C12.3045 166.688 14.0703 184.302 24.377 200.326C34.6661 216.323 53.4355 230.685 85.7803 235.696L84.5391 252.865C68.2839 259.563 45.2915 271.633 28.7881 286.246C20.4892 293.595 13.7951 301.618 10.4453 309.957C7.08606 318.321 7.09488 327 12.1973 335.577L12.2012 335.585L12.207 335.593C16.2801 341.881 27.4039 356.111 39.6182 363.173C38.666 364.98 37.8194 367.133 37.3867 369.341C36.9198 371.724 36.9231 374.211 37.8301 376.392C38.745 378.592 40.557 380.426 43.5859 381.523C46.4987 382.577 50.5317 382.946 55.9922 382.339V477.321C50.2819 478.559 42.213 481.283 36.0771 485.573C32.9356 487.769 30.2699 490.396 28.7021 493.473C27.1268 496.565 26.6737 500.089 27.9248 504.021L27.9404 504.073L27.9678 504.118C30.1228 507.861 36.0168 512.271 46.6182 513.759C57.2321 515.249 72.607 513.821 93.835 505.85L93.8369 505.849C95.4938 505.218 99.1764 502.572 101.47 496.927L101.506 496.836V398.953L126.078 400.619L139.777 481.316C135.013 483.463 128.575 487.429 124.325 492.585C122.144 495.232 120.518 498.217 120.016 501.45C119.511 504.695 120.144 508.148 122.409 511.701L122.446 511.759L122.497 511.805C128.156 516.869 146.715 523.697 176.39 511.897V511.896C178.155 511.197 180.906 509.805 183.463 507.883C186.01 505.968 188.428 503.48 189.427 500.575L189.464 500.466L189.45 500.352L175.716 387.468C180.649 389.041 187.818 390.435 194.193 389.743C197.55 389.379 200.724 388.434 203.233 386.599C205.751 384.758 207.569 382.044 208.242 378.215C209.062 375.6 208.707 369.573 201.809 364.561C207.77 361.48 216.202 355.757 223.062 348.091C230.214 340.101 235.709 329.94 234.83 318.428C234.278 311.193 230.049 303.799 223.88 296.768C217.702 289.727 209.529 282.996 200.988 277.08C192.445 271.163 183.516 266.052 175.814 262.257C168.37 258.589 162.029 256.132 158.281 255.38L155.164 234.4C166.105 232.846 182.733 228.275 197.752 219.492C212.998 210.577 226.646 197.285 230.927 178.35C232.676 172.501 234.367 159.285 233.838 138.539C233.308 117.761 230.55 89.3962 223.374 53.2532C222.219 42.4696 219.6 26.9654 215.484 15.5003C213.431 9.7786 210.977 4.98439 208.09 2.30988C206.637 0.96424 205.043 0.12574 203.312 0.0130005ZM163.456 292.968C186.073 301.251 219.422 323.566 171.883 346.558L170.803 347.206L163.456 292.968ZM72.2666 291.024C68.6651 302.116 61.6786 327.759 62.543 341.588C45.3281 333.377 23.1718 311.768 72.2666 291.024Z" fill="#FFC22D"/>
<ellipse cx="8.21131" cy="14.0457" rx="8.21131" ry="14.0457" transform="matrix(-1 0 0 1 149.193 118.154)" fill="#9D781D"/>
<ellipse cx="8.21131" cy="14.0457" rx="8.21131" ry="14.0457" transform="matrix(-1 0 0 1 64.9189 118.154)" fill="#9D781D"/>
<path d="M138.821 175.913C140.81 175.913 142.718 176.703 144.125 178.109C145.531 179.516 146.321 181.423 146.321 183.413C146.321 185.402 145.531 187.309 144.125 188.716C142.718 190.122 140.81 190.913 138.821 190.913C137.405 190.913 135.989 190.913 134.574 190.913C134.477 190.913 134.38 190.913 134.283 190.913L139.877 188.408C120.442 211.802 80.4253 209.989 61.3919 189.164C61.3082 189.088 61.2245 189.011 61.1409 188.935L64.983 190.81C63.6865 190.594 62.39 190.378 61.0935 190.162C59.1314 189.835 57.3796 188.742 56.2234 187.124C55.0673 185.505 54.6015 183.493 54.9285 181.531C55.2555 179.569 56.3485 177.817 57.9672 176.661C59.5858 175.505 61.5974 175.039 63.5594 175.366C63.5594 175.366 63.5594 175.366 63.5594 175.366C64.856 175.582 66.1525 175.799 67.449 176.015L69.649 176.381L71.2912 177.891C71.3606 177.954 71.4299 178.018 71.4993 178.081C87.8972 194.83 113.956 194.932 128.69 178.417L130.926 175.913H134.283C134.38 175.913 134.477 175.913 134.574 175.913C135.989 175.913 137.405 175.913 138.821 175.913Z" fill="#9D781D"/>
<path d="M246 137.602C236.492 129.751 211.858 114.005 189.385 113.832M189.385 113.832C188.809 107.566 183.767 95.2489 168.209 96.1133C157.404 95.6091 132.9 95.465 121.318 98.9224C109.735 102.38 109.433 115.345 109.433 121.395C109.433 137.602 110.816 162.927 140.549 162.236C161.006 164.901 199.412 158.951 189.385 113.832Z" stroke="#9D781D" stroke-width="15" stroke-linecap="round"/>
<path d="M109.434 122.259C105.904 119.162 97.8513 114.826 89.5536 122.259M89.5536 122.259C91.1382 132.559 91.4984 154.327 84.5836 158.994C73.5631 164.108 45.1693 171.7 19.7574 161.155C13.707 158.644 -3.36388 109.295 19.7574 101.731C43.7548 93.8807 68.377 95.8969 82.6388 99.354C82.6388 99.354 90.2451 101.861 89.5536 122.259Z" stroke="#9D781D" stroke-width="15" stroke-linecap="round"/>
</svg>
