<svg width="2079" height="1275" viewBox="0 0 2079 1275" fill="none" xmlns="http://www.w3.org/2000/svg">
<rect y="265" width="1667" height="1010" rx="110" fill="#FBFBFB"/>
<path d="M1717.7 603.001L1724.7 541.001C1733.54 381.334 1798.4 147.001 1987.2 487.001C2176 827.001 1831.54 1052.33 1635.7 1122.5L1645.7 1019.5V711.501L1717.7 603.001Z" fill="#FFC22D"/>
<path d="M1969.17 0.0286965C1965.35 -0.219631 1961.35 1.13758 1957.18 4.34022C1936.65 20.1146 1906.38 49.1378 1881.12 76.2084C1868.49 89.7454 1857.11 102.804 1848.81 113.485C1844.67 118.824 1841.29 123.578 1838.91 127.504C1837.72 129.467 1836.78 131.232 1836.11 132.765C1835.56 134.044 1835.2 135.186 1835.05 136.161C1821.65 134.013 1782.15 131.849 1726.23 139.699C1704.21 107.956 1670.19 63.7817 1639.44 34.1146C1624.03 19.2541 1609.39 7.97613 1597.45 3.76698C1591.48 1.6602 1586.11 1.29899 1581.66 3.22694C1577.19 5.16009 1573.74 9.34475 1571.51 16.0795L1571.51 16.1019L1571.5 16.1244C1562.67 54.2744 1545.22 148.437 1545.99 220.076L1527.58 245.443L1527.49 245.575V321.764L1527.49 321.79L1531.49 358.731C1527.9 384.917 1531.96 425.556 1555.73 462.52C1579.54 499.533 1623.09 532.812 1698.41 544.231L1698.43 544.233L1698.44 544.235C1729.88 547.314 1805.53 551.031 1856.58 541.229C1881.8 537.802 1920.83 527.234 1956.02 506.656C1991.21 486.073 2022.63 455.438 2032.47 411.86C2036.49 398.439 2040.41 367.933 2039.19 319.924C2037.96 271.88 2031.59 206.275 2014.98 122.661C2012.31 97.7287 2006.26 61.8971 1996.76 35.4301C1992.01 22.2075 1986.38 11.2431 1979.82 5.16834C1976.53 2.12262 1972.98 0.277038 1969.17 0.0286965Z" fill="#FFC22D"/>
<ellipse cx="19" cy="32.5" rx="19" ry="32.5" transform="matrix(-1 0 0 1 1843.99 272.737)" fill="#9D781D"/>
<ellipse cx="19" cy="32.5" rx="19" ry="32.5" transform="matrix(-1 0 0 1 1648.99 272.737)" fill="#9D781D"/>
<path d="M1895.23 418.096C1897.86 417.202 1900.75 417.392 1903.24 418.625C1905.74 419.858 1907.65 422.032 1908.54 424.669C1909.43 427.306 1909.24 430.191 1908.01 432.688C1906.78 435.185 1904.61 437.09 1901.97 437.984C1899.78 438.725 1897.6 439.466 1895.41 440.207C1895.28 440.251 1895.15 440.295 1895.02 440.338L1901.41 434.277C1885.49 480.401 1822.73 498.774 1783.58 475.456C1783.4 475.372 1783.22 475.287 1783.03 475.201L1789.12 476.077C1787.01 476.403 1784.91 476.729 1782.81 477.055C1780.06 477.482 1777.25 476.798 1775 475.154C1772.76 473.51 1771.25 471.04 1770.83 468.288C1770.4 465.536 1771.08 462.728 1772.73 460.48C1774.37 458.232 1776.84 456.73 1779.59 456.303C1779.59 456.303 1779.59 456.303 1779.59 456.303C1781.69 455.977 1783.8 455.651 1785.9 455.325L1789.07 454.833L1791.98 456.201C1792.13 456.274 1792.29 456.347 1792.44 456.419C1826.68 475.105 1868.43 461.292 1881.9 426.512L1883.69 422.007L1888.28 420.45C1888.41 420.406 1888.54 420.363 1888.67 420.319C1890.85 419.578 1893.04 418.837 1895.23 418.096Z" fill="#9D781D"/>
<path d="M2067.99 317.737C2045.99 299.571 1988.99 263.137 1936.99 262.737M1936.99 262.737C1935.65 248.237 1923.99 219.737 1887.99 221.737C1862.99 220.571 1806.29 220.237 1779.49 228.237C1752.69 236.237 1751.99 266.237 1751.99 280.237C1751.99 317.737 1755.19 376.337 1823.99 374.737C1871.32 380.904 1960.19 367.137 1936.99 262.737Z" stroke="#9D781D" stroke-width="21" stroke-linecap="round"/>
<path d="M1751.99 282.236C1743.82 275.07 1725.19 265.036 1705.99 282.236M1705.99 282.236C1709.65 306.07 1710.49 356.436 1694.49 367.236C1668.99 379.07 1603.29 396.636 1544.49 372.236C1530.49 366.427 1499.49 268.237 1544.49 234.736C1591.35 199.849 1656.99 221.237 1689.99 229.236C1689.99 229.236 1707.59 235.036 1705.99 282.236Z" stroke="#9D781D" stroke-width="21" stroke-linecap="round"/>
<path d="M1494.89 800.318C1626.95 850.453 1895.32 821.207 2013 800.318L1872.74 637C1836.1 699.289 1629.11 705.999 1530.2 701.567C1510.35 668.903 1459.59 664.536 1436.69 666.435C1402.98 653.458 1332.69 633.961 1321.24 659.788C1309.79 685.615 1380.71 698.402 1417.61 701.567C1387.07 721.317 1388.98 755.374 1393.75 769.933C1406.73 834.501 1466.59 817.093 1494.89 800.318Z" fill="#FFC22D"/>
</svg>
