<svg width="837" height="670" viewBox="0 0 837 670" fill="none" xmlns="http://www.w3.org/2000/svg">
<path d="M279.381 416.763L311.492 429.76L444.676 416.121L445.875 415.998L446.544 417.001L456.207 431.496L456.638 432.143L456.52 432.909L451.899 462.943L477.61 477.312H493.814L492.619 480.1L485.932 495.704L503.313 511.575L525.766 527.612L527.319 528.723L526.282 530.326L517.584 543.768L508.808 574.086L508.648 574.637L508.222 575.02L484.868 595.957L483.025 597.61L481.797 595.46L475.79 584.948L460.116 581.386L443.186 601.397L442.27 602.48L440.944 601.973L413.953 591.653L309.531 596.436L285.078 616.156L284.636 616.514L284.071 616.584L259.054 619.711L217.68 666.655L216.901 667.538L215.752 667.286L189.982 661.65L189.509 661.546L189.135 661.237L165.782 641.909L165.42 641.611L165.229 641.181L149.291 605.32L139.126 595.938L138.309 595.183L138.519 594.09L142.298 574.434L99.9023 545.143L71.8604 554.49L69.4834 555.282L69.2373 552.788L64.4062 503.666L64.3311 502.904L64.7852 502.286L84.6924 475.211L87.8174 463.496L88.2129 462.012H105.119L108.753 448.202L109.146 446.711H128.239L128.761 447.084L145.34 458.926L187.09 468.204L195.993 454.85L196.814 453.618L198.232 454.043L213.37 458.584L221.393 452.569L220.623 429.451L220.59 428.457L221.362 427.831L251.157 403.672L251.521 403.378L251.977 403.276L276.94 397.638L279.381 397.087V416.763Z" fill="#D9D9D9" stroke="#737373" stroke-width="4"/>
<path d="M603.438 229.42L657.393 250.358L659.605 251.216L658.384 253.252L622.255 313.464L611.27 345.634L622.059 377.229L661.59 396.995L664.96 398.68L661.676 400.527L610.841 429.121L591.746 492.771L590.282 497.65L588.036 493.079L564.683 445.567L564.478 445.15V386.536L545.15 380.093V352.753L528.047 347.548L527.301 347.321L526.905 346.649L518.853 332.96L517.72 331.034L519.758 330.121L541.93 320.181V293.708H570.356L600.146 257.044L588.269 242.198L586.979 240.586L588.631 239.348L601.515 229.685L602.403 229.018L603.438 229.42Z" fill="#D9D9D9" stroke="#737373" stroke-width="4"/>
<path d="M642.535 68.2612L690.852 77.1186L692.015 77.3325L692.389 78.4536L700.038 101.403L768.139 109.231L797.344 91.0776L798.386 90.4301L799.435 91.0649L830.035 109.586L832.803 111.261L830.068 112.989L816.942 121.278L830.375 134.004L831.979 135.524L830.308 136.969L765.08 193.339L764.709 193.66L764.231 193.772L679.515 213.752L669.826 225.258H679.854L680.31 226.625L685.141 241.121L685.744 242.93L683.966 243.619L659.002 253.282L658.013 253.664L657.142 253.061L636.204 238.566L635.493 238.074L635.364 237.218L630.533 205.007L630.487 204.703L630.535 204.399L635.287 174.298L630.625 161.085L630.132 159.689L631.324 158.81L645.923 148.052L652.142 93.6391L636.084 80.6411L634.788 79.5922L635.587 78.1284L640.418 69.27L641.111 67.9995L642.535 68.2612Z" fill="#FFC22D" stroke="#737373" stroke-width="4"/>
<path d="M552.876 67.6337L561.896 72.1434L582.133 67.4735L583.175 67.2333L583.953 67.9667L596.988 80.2333L640.382 76.2889L641.348 76.201L642.015 76.9052L656.51 92.2059L657.168 92.9003L657.04 93.8475L649.793 147.802L649.684 148.615L649.033 149.118L632.693 161.743L638.273 171.507L638.645 172.157L638.498 172.891L632.131 204.724L638.503 238.972L639.104 242.203L635.958 241.252L602.529 231.145L594.709 239.617L603.646 255.257L604.491 256.736L603.165 257.806L553.237 298.069L551.481 299.485L550.286 297.573L538.706 279.044L503.4 274.337L502.399 274.203L501.912 273.318L493.055 257.213L492.255 255.759L493.535 254.705L506.497 244.03V216.366L463.248 192.776L459.888 190.943L463.312 189.231L473.48 184.146V166.225L474.848 165.77L492.05 160.036L482.524 139.519L481.204 136.678H519.592L516.226 123.886L516.16 123.636V100.585L517.023 99.9882L549.982 77.2303V66.1864L552.876 67.6337Z" fill="#D9D9D9" stroke="#737373" stroke-width="4"/>
<path d="M416.278 280.43L405.443 291.265H335.304L334.712 290.638L321.614 276.77H297.848L298.86 274.068L303.692 261.183L303.838 260.795L304.126 260.497L371.771 190.436L372.36 189.826H386.729L387.186 191.193L393.628 210.52L393.859 211.215L393.588 211.895L387.635 226.777L406.029 245.171L406.232 245.375L406.371 245.628L416.034 263.343L416.278 263.792V280.43Z" fill="#FFC22D" stroke="#737373" stroke-width="4"/>
<path d="M509.692 246.107L508.721 246.69L494.33 255.323L504.93 272.989L542.728 280.864L544.319 281.196V317.03L543.271 317.598L524.992 327.499V340.15L546.152 346.952L547.541 347.399V374.118L564.859 381.65L566.062 382.172V415.494L563.281 414.315L538.473 403.79L524.8 432.656L524.431 433.437L523.609 433.703L467.817 451.776V466.663L465.268 465.935L453.994 462.714L452.544 462.299V439.737L439.145 422.615L316.216 433.792L315.547 433.853L314.978 433.498L265.854 402.897L264.086 401.795L265.26 400.072L276.758 383.207L271.478 368.874L270.971 367.499L272.13 366.602L295.794 348.28L290.842 338.376L273.937 343.522L273.046 343.793L272.265 343.285L256.159 332.817L255.249 332.225V304.955H244.78V285.249L246.341 284.898L277.729 277.835L283.73 268.085L284.574 266.713L286.095 267.245L301.879 272.77H320.203L320.804 273.503L334.699 290.487H403.822L416.014 279.012L408.456 255.584L386.927 227.675L386.16 226.681L386.722 225.559L392.805 213.391L386.599 193.219L385.905 190.965L388.242 190.65L418.038 186.622L418.549 186.554L419.028 186.74L457.843 201.79L475.704 196.355L476.456 196.126L477.162 196.47L508.568 211.771L509.692 212.319V246.107Z" fill="#D9D9D9" stroke="#737373" stroke-width="4"/>
<path d="M258.443 336.992L272.102 342.025H292.307L297.597 352.605L296.372 353.618L274.306 371.879L280.734 383.308L281.364 384.427L280.609 385.465L267.725 403.181L267.125 404.005H252.303L223.816 426.33V455.543L222.765 456.109L212.296 461.746L211.462 462.195L210.586 461.835L198.431 456.829L188.866 471.544L188.096 472.73L186.721 472.399L143.235 461.93L142.768 461.818L142.402 461.504L126.25 447.659L105.484 452.275L104.197 452.561L103.427 451.49L88.9316 431.359L88.4365 430.671L88.5869 429.836L94.2236 398.431L94.3809 397.554L95.1377 397.084L117.545 383.175V372.448L99.8818 360.161L99.0234 359.565V339.787L82.624 333.824L81.3076 333.346V323.528L82.3271 322.954L95.2119 315.707L95.668 315.45H125.339L134.086 288.478L124.793 282.282V270.734L126.378 270.398L152.88 264.776L186.64 255.131L186.909 255.054H198.807L199.386 256.046L204.002 263.96L210.318 260.171L211.364 259.543L212.4 260.185L228.829 270.355H254.275L253.532 272.912L246.642 296.646L257.754 306.276L258.443 306.873V336.992Z" fill="#D9D9D9" stroke="#737373" stroke-width="4"/>
<path d="M109.345 3.3125L117.712 8.63672H131.565L132.129 9.12598L143.644 19.1055H163.272L159.563 22.5674L148.685 32.7207L162.313 54.6777L163.086 55.9229L162.133 57.0342L158.409 61.3779L166.168 70.5469L167.208 71.7764L166.229 73.0557L149.925 94.3203L164.814 95.6152L166.252 95.7402L166.587 97.1445L170.613 114.056L171.003 115.693L169.455 116.356L148.119 125.501V140.771L146.947 141.303L120.373 153.383L119.861 153.614L119.305 153.547L93.1768 150.38L74.2764 156.68L73.5811 156.912L72.9014 156.64L56.7949 150.197L54.2773 149.19L55.9834 147.082L65.1885 135.71L15.5312 153.445L11.9521 154.723L12.9248 151.05L20.1719 123.67L20.2432 123.402L20.3838 123.164L30.252 106.464L4.27734 62.3848L3.41016 60.915L4.72656 59.8281L23.1748 44.5869L34.3809 33.3809L34.9668 32.7959H49.1904L49.6377 33.04L57.2939 37.2148L82.0176 16.3555L82.1895 16.2109L82.3896 16.1074L107.354 3.22266L108.375 2.69531L109.345 3.3125Z" fill="#D9D9D9" stroke="#737373" stroke-width="4"/>
<path d="M231.966 13.137L242.071 21.6868L278.65 30.4349L281.369 31.0843L279.877 33.4476L260.55 64.0482L260.104 64.7542L259.29 64.9339L204.53 77.013L204.005 77.1282L203.491 76.9651L165.644 64.886L164.863 64.637L164.481 63.9114L148.376 33.3109L147.657 31.9466L148.794 30.9056L158.457 22.0472L159.031 21.5218H216.393L229.587 12.9847L230.833 12.178L231.966 13.137Z" fill="#D9D9D9" stroke="#737373" stroke-width="4"/>
<path d="M448.49 122.646L447.842 123.241L438.179 132.098L437.219 132.978L436.025 132.457L424.565 127.443L419.884 133.463L418.413 135.354L416.814 133.568L403.125 118.268L402.615 117.699V87.5134L409.648 83.9968L399.784 70.6091L398.568 68.9597L400.247 67.7839L406.399 63.4772L393.5 49.861L392.756 49.0749L393.007 48.0222L397.033 31.111L397.353 29.7673L398.723 29.5905L423.687 26.3698L424.061 26.321L424.428 26.4128L453.137 33.5905L492.31 31.9919L495.355 31.8679L494.257 34.7106L480.567 70.1432L480.228 71.0222L479.334 71.32L455.842 79.1501L439.577 104.285L447.6 109.633L448.49 110.227V122.646Z" fill="#D9D9D9" stroke="#737373" stroke-width="4"/>
<path d="M380.144 25.548L380.58 25.7765L397.491 34.6349L399.685 35.7833L398.1 37.6866L394.536 41.962V54.1027L392.179 53.674L383.841 52.1583L354.738 62.3829L322.7 81.6066L322.183 81.9171L321.578 81.8888L286.951 80.2784L286.59 80.2618L286.257 80.1193L258.071 68.0402L255.909 67.1134L257.172 65.1281L279.72 29.6954L280.335 28.7296L281.479 28.7706L348.542 31.1652L357.707 25.8204L358.174 25.548H380.144Z" fill="#D9D9D9" stroke="#737373" stroke-width="4"/>
<path d="M492.539 38.4384L514.282 40.0487L516.65 40.2235L516.074 42.5282L513.334 53.4901L551.681 63.4608L553.663 63.9764L553.101 65.9462L549.879 77.2196L549.667 77.9618L549.012 78.369L519.842 96.5009L514.627 112.893L522.474 136.434L523.336 139.02L520.61 139.066L472.293 139.872L471.034 139.892L470.471 138.766L464.581 126.987H447.712V112.245L439.587 105.598L438.121 104.398L439.238 102.87L454.539 81.9325L454.834 81.5292L455.283 81.3124L479.52 69.5848L490.515 39.7411L491.036 38.327L492.539 38.4384Z" fill="#D9D9D9" stroke="#737373" stroke-width="4"/>
<path d="M405.06 118.594L420.165 130.679L423.854 128.835L424.594 128.465L425.38 128.727L436.673 132.491L447.206 127.225L447.629 127.014H463.796L464.36 128.073L470.238 139.093H484.129L484.607 140.409L487.829 149.268L488.619 151.441L486.354 151.909L463.001 156.742L462.801 156.783H421.676L421.147 156.394L393.768 136.262L392.254 135.15L393.27 133.57L400.46 122.384L403.128 117.048L405.06 118.594Z" fill="#D9D9D9" stroke="#737373" stroke-width="4"/>
<path d="M384.436 53.076L402.151 60.3241L404.236 61.1766L403.143 63.1464L399.772 69.2118L409.389 81.0458L410.961 82.9813L408.731 84.0966L403.395 86.7645V118.301L403.103 118.779L392.826 135.662L422.132 155.199H456.038L485.734 151.989L487.949 151.75V158.291L487.03 158.881L476.391 165.721L471.767 181.906L471.57 182.595L470.981 183.002L463.011 188.519L473.319 194.962L477.01 197.268L472.855 198.566L459.972 202.593L459.269 202.812L458.592 202.524L421.232 186.627L387.941 190.591L387.823 190.604H374.83L301.929 261.921V274.063L299.479 273.498L280.991 269.23V278.011L279.395 278.34L252.015 283.976L248.679 284.663L249.704 281.415L253.714 268.718H227.507L226.941 268.223L215.101 257.861L205.854 262.842L202.905 264.429V257.152L189.723 255.07L141.02 268.643L138.482 269.35V209.152H150.299L157.1 187.993L157.546 186.604H171.175L187.271 173.433L184.942 166.446H179.316L178.803 166.091L168.334 158.843L167.473 158.247V143.898H147.341V126.932L148.498 126.394L169.746 116.528L167.65 96.9618L151.486 94.7577L148.094 94.2948L150.163 91.5673L167.879 68.2137L168.672 67.1688L169.946 67.4794L202.539 75.4286L256.062 65.0438L256.719 64.9159L257.319 65.2089L288.404 80.3524L318.726 83.4628L351.941 60.5292L352.25 60.3153L352.616 60.2294L383.217 52.9813L383.842 52.8339L384.436 53.076Z" fill="#D9D9D9" stroke="#737373" stroke-width="4"/>
<path d="M567.672 443.451L587.905 488.586H596.15L596.578 490.012L601.41 506.117L602.098 508.411L599.718 508.679L544.012 514.955L541.869 526.387L541.562 528.019H526.302L525.748 527.564L489.511 497.768L488.625 497.039L488.806 495.907L491.656 478.091H476.461L475.944 477.73L467.892 472.093L467.038 471.495V454.978L467.813 454.377L492.777 435.051L493.318 434.632H523.265L538.055 398.825L538.875 396.839L540.798 397.8L566.566 410.685L567.672 411.237V443.451Z" fill="#D9D9D9" stroke="#737373" stroke-width="4"/>
</svg>
